<svg xmlns="http://www.w3.org/2000/svg" version="1.1" xmlns:xlink="http://www.w3.org/1999/xlink" xmlns:svgjs="http://svgjs.com/svgjs" width="512" height="512" x="0" y="0" viewBox="0 0 128 128" style="enable-background:new 0 0 512 512" xml:space="preserve" class=""><g><g xmlns="http://www.w3.org/2000/svg"><path d="m94.4 32.311a7.416 7.416 0 1 0 0 10.493 7.43 7.43 0 0 0 0-10.493zm-2.474 8.018a3.917 3.917 0 1 1 0-5.543 3.926 3.926 0 0 1 -.001 5.543z" fill="#005c53" data-original="#000000"></path><path d="m101.25 25.461a28.45 28.45 0 0 0 -46.445 30.894l-35.356 35.355a1.751 1.751 0 0 0 -.512 1.181l-.517 16.172a1.751 1.751 0 0 0 1.749 1.806h.056l16.17-.518a1.751 1.751 0 0 0 1.7-1.749v-8.696h8.683a1.749 1.749 0 0 0 1.75-1.75v-8.683h8.684a1.75 1.75 0 0 0 1.75-1.75v-8.683h8.684a1.752 1.752 0 0 0 1.237-.513l5.359-5.354a28.447 28.447 0 0 0 27.008-47.712zm-2.475 37.754a24.975 24.975 0 0 1 -24.575 6.325 1.76 1.76 0 0 0 -1.722.443l-5.562 5.557h-9.709a1.749 1.749 0 0 0 -1.75 1.75v8.683h-8.684a1.751 1.751 0 0 0 -1.75 1.75v8.683h-8.683a1.75 1.75 0 0 0 -1.75 1.75v8.75l-12.613.4.436-13.606 35.708-35.713a1.749 1.749 0 0 0 .353-1.969 24.949 24.949 0 1 1 40.3 7.2z" fill="#005c53" data-original="#000000"></path></g></g></svg>